<svg version="1.0" xmlns="http://www.w3.org/2000/svg"
 width="512.000000pt" height="512.000000pt" viewBox="0 0 512.000000 512.000000"
 preserveAspectRatio="xMidYMid meet">
<g transform="translate(0.000000,512.000000) scale(0.100000,-0.100000)"
fill="#000000" stroke="none">
<path d="M3033 5105 c-12 -8 -29 -39 -38 -68 -20 -62 -46 -87 -91 -87 -27 0
-46 12 -100 63 -61 57 -71 62 -111 62 -38 0 -49 -5 -74 -33 -19 -21 -29 -43
-29 -63 0 -36 -47 -89 -79 -89 -11 0 -76 26 -143 58 -150 71 -168 76 -210 59
-43 -18 -59 -38 -65 -84 -3 -31 4 -54 42 -127 242 -467 687 -785 1204 -861 58
-9 107 -17 108 -19 1 -1 -36 -30 -82 -65 l-85 -63 -102 -9 c-353 -33 -679
-172 -910 -388 l-75 -70 -302 -3 -303 -3 -29 -33 c-32 -36 -37 -77 -15 -121
26 -49 41 -51 402 -51 l336 0 92 91 c223 222 527 353 876 375 l104 7 221 166
220 166 207 3 c120 2 223 -1 245 -7 29 -8 107 -72 323 -266 313 -281 350 -317
350 -341 0 -19 -148 -174 -166 -174 -8 0 -35 19 -62 43 -116 103 -167 117
-429 117 -170 0 -201 3 -255 21 -78 26 -110 48 -173 116 -41 44 -58 55 -91 60
-35 4 -46 1 -73 -23 -47 -43 -51 -87 -10 -147 38 -58 122 -128 198 -167 103
-51 154 -62 334 -67 l167 -6 0 -233 0 -232 -26 -31 c-33 -39 -84 -54 -131 -38
-59 20 -76 54 -83 158 -5 84 -7 93 -33 115 -41 35 -98 36 -134 1 -13 -13 -75
-151 -142 -319 -132 -328 -137 -338 -193 -421 -73 -108 -187 -206 -313 -270
-99 -50 -90 37 -93 -838 l-2 -769 -125 0 -124 0 -3 608 -3 607 -78 355 c-43
195 -83 368 -89 383 -14 37 -49 59 -92 59 -47 0 -75 -18 -92 -58 -13 -32 -13
-45 6 -131 11 -53 19 -97 17 -100 -3 -2 -56 -17 -119 -33 -345 -87 -679 -74
-1019 39 -132 45 -259 105 -259 124 0 6 7 34 15 61 22 71 19 109 -9 139 -44
48 -108 48 -152 0 -13 -14 -24 -32 -24 -40 0 -8 -25 -90 -56 -181 -91 -276
-194 -472 -429 -817 l-105 -155 0 -430 0 -430 -135 0 -135 0 0 477 0 476 54
126 c145 339 217 661 236 1058 5 121 15 221 25 258 38 143 132 283 247 370 69
51 87 76 88 117 0 62 -43 108 -103 108 -54 0 -211 -132 -292 -245 -121 -170
-161 -306 -175 -603 -18 -387 -84 -677 -225 -997 l-55 -124 0 -584 0 -584 26
-27 27 -26 282 0 282 0 25 25 c14 14 28 39 32 56 3 18 6 230 6 473 l0 441 38
57 37 56 220 -535 c157 -383 227 -541 244 -554 22 -18 44 -19 301 -19 l278 0
26 31 c18 21 26 42 26 67 0 24 -69 211 -199 541 l-199 503 54 107 c60 119 101
249 110 352 4 40 12 69 18 69 6 0 45 -7 86 -16 46 -9 155 -17 285 -21 236 -6
361 7 556 56 72 18 112 24 114 17 2 -6 20 -85 39 -175 l36 -164 0 -654 0 -655
29 -29 29 -29 501 0 500 0 28 24 28 24 5 1034 5 1033 64 150 c35 83 65 152 67
154 2 3 14 -5 27 -16 55 -51 107 -68 208 -68 86 0 101 3 154 30 72 37 138 114
160 187 11 39 15 100 15 245 0 178 5 215 26 182 15 -25 95 -50 159 -50 85 0
129 23 232 124 105 102 133 155 133 251 0 79 -19 131 -66 182 -66 73 -636 575
-675 594 l-42 22 34 21 c145 87 169 110 169 159 0 36 -24 84 -49 98 -11 6 -92
10 -189 10 -92 0 -195 5 -228 11 -176 32 -323 169 -369 344 -8 33 -15 79 -15
103 0 37 -6 50 -34 78 -27 27 -42 34 -72 34 -35 0 -45 -7 -115 -80 -115 -121
-143 -111 -228 80 -65 143 -80 160 -141 160 -25 0 -55 -7 -67 -15z m130 -422
c79 -82 209 -110 309 -65 l46 20 18 -42 c79 -180 244 -327 429 -382 l60 -18
-60 -18 c-149 -46 -358 -66 -520 -49 -341 36 -625 171 -866 411 -58 58 -111
114 -116 125 -10 19 -8 20 50 21 71 1 135 25 189 73 l36 32 44 -23 c64 -34
185 -33 253 3 l50 26 19 -36 c10 -20 36 -55 59 -78z m-1883 -2893 c63 -27 121
-50 129 -50 11 0 12 -14 7 -71 -13 -124 -42 -218 -116 -364 -39 -77 -70 -146
-70 -153 0 -11 127 -338 349 -899 l21 -53 -123 0 -123 0 -230 561 -231 560 49
82 c53 86 177 336 199 400 7 20 15 37 19 37 3 0 57 -23 120 -50z m2380 -785
l0 -805 -120 0 -120 0 0 719 0 718 63 37 c34 20 87 59 117 86 30 27 56 49 58
50 1 0 2 -362 2 -805z"/>
<path d="M4074 3752 c-54 -43 -58 -100 -10 -148 26 -26 43 -34 69 -34 94 0
134 121 60 180 -32 25 -90 26 -119 2z"/>
<path d="M1158 3312 c-36 -4 -78 -55 -78 -93 0 -124 167 -151 199 -32 11 37
-4 93 -28 108 -21 12 -65 21 -93 17z"/>
</g>
</svg>
